<?xml version="1.0" standalone="no"?>
<!DOCTYPE svg PUBLIC "-//W3C//DTD SVG 20010904//EN"
 "http://www.w3.org/TR/2001/REC-SVG-20010904/DTD/svg10.dtd">
<svg version="1.0" xmlns="http://www.w3.org/2000/svg"
 width="375.000000pt" height="666.000000pt" viewBox="0 0 375.000000 666.000000"
 preserveAspectRatio="xMidYMid meet">

<g transform="translate(0.000000,666.000000) scale(0.100000,-0.100000)"
fill="#000000" stroke="none">
<path d="M1485 4681 c-188 -43 -390 -122 -501 -198 -234 -159 -269 -192 -348
-323 -31 -52 -83 -133 -116 -180 -33 -47 -62 -98 -66 -113 -3 -15 -16 -54 -29
-85 -31 -77 -60 -204 -75 -332 -15 -124 -3 -350 40 -746 13 -120 56 -253 91
-282 16 -13 41 -45 56 -70 28 -49 72 -110 136 -190 21 -26 47 -63 57 -83 27
-51 166 -177 225 -204 128 -57 278 -95 380 -95 101 0 168 12 318 56 64 19 156
39 203 45 82 9 135 27 149 49 4 6 39 27 78 47 139 69 176 89 194 105 10 9 40
28 68 44 62 34 75 47 75 74 0 11 6 20 13 19 6 -1 17 -1 24 0 17 2 74 91 67
103 -4 6 -3 8 3 5 5 -4 30 38 56 93 36 78 50 100 66 100 11 0 22 -4 25 -9 3
-4 16 -6 30 -4 18 4 23 10 19 26 -4 22 -4 22 13 0 9 -13 23 -23 30 -23 8 0 14
-5 14 -11 0 -7 16 -9 44 -7 33 4 58 16 105 53 82 65 115 129 115 231 1 86 -16
116 -87 154 -26 14 -50 33 -53 42 -3 10 4 38 15 62 10 25 24 71 31 103 15 77
77 229 111 274 32 41 95 159 97 180 11 148 -7 216 -72 268 -55 44 -111 48
-221 16 -49 -14 -105 -35 -122 -45 -33 -19 -33 -19 -44 3 -7 12 -27 39 -45 60
-19 20 -34 42 -34 48 0 6 -26 38 -58 72 -98 104 -172 197 -238 299 -117 180
-256 302 -399 349 -22 7 -46 17 -53 23 -7 5 -79 10 -160 12 -115 3 -165 -1
-227 -15z m295 -145 c14 -2 31 -4 39 -5 8 0 11 -4 8 -7 -3 -4 -1 -16 5 -28 11
-20 11 -20 19 -1 6 17 8 16 8 -7 1 -28 1 -28 21 -8 16 16 23 17 42 7 49 -27
68 -42 69 -57 0 -10 2 -11 6 -3 6 16 73 -33 73 -54 0 -7 8 -17 17 -20 53 -21
163 -184 163 -243 0 -12 4 -19 9 -15 12 7 31 -26 32 -57 1 -23 1 -23 9 2 7 23
8 21 15 -17 4 -24 12 -43 17 -43 6 0 8 7 5 15 -4 8 -2 17 2 20 5 2 12 -7 15
-21 4 -14 17 -35 29 -47 27 -26 79 -125 72 -137 -3 -5 4 -24 15 -43 14 -23 17
-38 10 -42 -5 -3 -10 -11 -10 -16 0 -6 4 -8 9 -5 10 7 25 -22 22 -41 -1 -7 7
-13 17 -13 19 0 59 -47 54 -62 -1 -5 5 -8 13 -8 28 0 59 -92 39 -113 -12 -12
-12 -72 -1 -79 12 -7 12 -21 4 -188 -7 -166 -19 -283 -29 -304 -6 -10 -11 -55
-13 -100 -1 -44 -8 -101 -15 -126 -6 -25 -15 -72 -18 -105 -9 -74 -19 -93 -36
-69 -11 14 -17 7 -49 -58 -20 -41 -37 -79 -37 -84 0 -19 -38 -89 -58 -107 -19
-18 -21 -18 -31 0 -10 17 -13 15 -41 -16 -16 -18 -30 -38 -30 -42 0 -5 -7 -9
-15 -9 -11 0 -13 7 -9 29 6 30 -10 51 -20 26 -3 -8 -12 -15 -21 -15 -8 0 -15
-8 -16 -17 -2 -60 -22 -113 -37 -98 -3 3 -11 0 -17 -5 -9 -8 -16 1 -27 35 -9
27 -12 48 -6 51 5 3 6 20 3 37 -16 82 -26 86 -54 25 l-19 -42 -11 39 c-6 22
-11 46 -11 53 0 6 -6 12 -14 12 -8 0 -16 7 -20 15 -3 8 -17 15 -31 15 -19 0
-29 9 -42 35 -20 41 -22 42 -51 14 -12 -11 -27 -17 -33 -13 -6 4 -15 1 -19 -6
-6 -9 -10 -7 -15 9 -7 22 -35 29 -35 9 0 -7 -9 -2 -19 11 -12 16 -31 25 -59
28 -44 5 -44 5 -55 -67 -3 -15 -5 -9 -6 16 -1 49 -15 65 -51 57 -24 -4 -28 -1
-34 28 -4 20 -2 35 4 37 5 2 10 13 10 24 0 20 49 97 63 98 4 0 7 -20 7 -45 0
-51 5 -54 31 -23 19 21 23 33 20 52 -5 25 12 86 24 86 20 0 24 34 9 97 -11 50
-11 59 1 66 8 4 15 13 15 18 0 6 -4 8 -8 5 -9 -6 -9 -1 3 89 7 52 9 56 16 32
4 -15 5 -52 3 -82 -4 -50 -3 -55 16 -55 21 0 27 28 21 112 -1 21 2 45 8 55 14
24 15 -89 1 -172 -6 -40 -6 -61 0 -63 6 -2 10 -10 10 -18 0 -8 5 -14 11 -14 7
0 9 12 5 35 -4 20 -2 44 4 55 6 12 13 51 15 87 4 59 24 113 43 113 8 0 42
-110 43 -142 0 -15 3 -18 6 -8 3 8 11 18 16 22 6 3 10 47 10 102 0 53 3 96 8
96 5 0 9 -4 9 -10 0 -5 5 -10 10 -10 6 0 10 12 10 26 0 23 2 25 15 14 9 -7 14
-19 11 -27 -3 -7 1 -13 10 -13 13 0 15 -9 12 -40 -2 -22 1 -40 5 -40 5 0 7
-27 5 -59 -2 -33 -1 -58 4 -55 13 8 9 -51 -5 -85 -10 -23 -11 -48 -5 -89 4
-31 10 -77 14 -102 6 -47 10 -57 20 -48 8 9 13 81 6 93 -9 15 -8 115 1 115 5
0 5 9 2 20 -3 11 -2 20 3 20 5 0 8 10 6 23 -1 12 -3 22 -4 22 -1 0 -4 51 -5
113 -3 89 -1 112 9 112 16 0 26 22 26 55 0 13 4 26 8 29 11 6 13 -151 2 -191
-5 -19 -5 -35 1 -39 5 -3 9 2 9 10 0 9 5 16 10 16 6 0 10 -7 8 -16 -2 -10 3
-19 11 -22 11 -4 12 7 5 59 -15 108 -10 209 11 253 14 29 16 41 7 44 -7 2 -12
16 -12 30 0 15 -7 40 -15 55 -14 28 -10 62 6 51 6 -3 7 5 4 19 -5 18 -1 29 13
38 13 9 19 25 18 47 -1 17 2 32 5 32 3 0 4 17 2 38 -2 20 -5 43 -5 50 -1 6 -5
12 -9 12 -4 0 -9 10 -13 23 -3 12 -19 28 -38 36 -18 8 -46 27 -62 43 -20 20
-32 25 -37 17 -7 -12 -25 27 -21 44 1 5 -8 7 -20 6 -13 -2 -28 0 -35 4 -6 4
-22 3 -36 -2 -19 -8 -29 -5 -45 10 -25 23 -36 25 -29 5 4 -11 -2 -14 -23 -13
-16 1 -29 -2 -29 -8 0 -13 39 -27 39 -15 0 6 7 10 15 10 12 0 12 -3 -2 -18
-14 -15 -24 -16 -46 -9 -19 6 -32 5 -42 -3 -9 -7 -22 -9 -32 -5 -10 5 -27 7
-38 6 -11 -2 -17 0 -13 5 13 12 -25 34 -39 22 -16 -13 -16 -25 0 -31 6 -2 -1
-3 -17 -1 -27 4 -28 3 -15 -14 8 -10 4 -8 -7 4 -12 13 -25 20 -28 17 -3 -4 -6
0 -7 8 0 8 -5 3 -10 -10 -8 -19 -12 -21 -24 -11 -19 16 -20 6 -1 -13 9 -9 11
-19 5 -28 -7 -12 -9 -11 -9 2 0 9 -7 20 -16 23 -8 3 -12 11 -8 17 4 8 3 9 -5
5 -6 -4 -9 -11 -6 -16 3 -4 1 -19 -4 -32 -9 -22 -10 -22 -11 7 0 23 -3 27 -10
15 -8 -13 -10 -13 -10 2 0 9 -5 20 -12 24 -8 5 -9 2 -5 -9 5 -12 1 -17 -13
-17 -11 0 -20 5 -20 11 0 6 -10 3 -22 -5 -20 -14 -24 -14 -41 1 -13 12 -17 13
-15 4 2 -7 -3 -16 -10 -18 -8 -3 -10 1 -5 13 3 9 2 15 -3 13 -48 -22 -70 -35
-76 -44 -4 -5 -10 -6 -14 -3 -10 11 -31 -15 -39 -50 -3 -18 -10 -30 -15 -27
-12 8 -22 -27 -10 -39 5 -5 10 -28 10 -51 0 -22 7 -50 15 -62 12 -18 13 -33 3
-101 -7 -45 -16 -79 -20 -76 -4 3 -8 0 -8 -5 0 -6 5 -11 10 -11 6 0 10 -18 10
-40 0 -28 -4 -40 -14 -40 -8 0 -17 -8 -20 -17 -3 -10 -3 -2 -1 17 3 19 -2 57
-10 84 -8 27 -13 51 -10 54 5 6 -26 31 -39 32 -4 0 -6 -7 -2 -15 4 -10 -1 -15
-14 -15 -13 0 -18 5 -14 15 4 8 2 15 -2 16 -5 0 -18 2 -28 4 -11 2 -27 0 -35
-5 -9 -5 -24 -2 -39 8 -22 15 -25 14 -34 -2 -8 -14 -12 -16 -18 -5 -7 10 -14
10 -35 1 -37 -17 -43 -15 -58 15 l-14 27 -8 -23 c-6 -21 -11 -23 -54 -18 -47
6 -91 -8 -62 -20 11 -4 11 -7 1 -13 -15 -9 -40 11 -40 32 0 10 -3 9 -10 -2 -5
-8 -10 -10 -10 -5 0 6 -5 3 -10 -5 -8 -13 -10 -12 -10 3 0 10 5 28 12 40 10
20 10 21 -5 8 -15 -12 -17 -10 -17 13 0 15 -7 34 -15 42 -17 17 -20 44 -5 44
5 0 15 -9 22 -20 19 -30 31 -24 25 10 -4 17 -2 30 3 30 6 0 10 9 10 21 0 16 4
19 17 15 9 -4 19 -2 23 4 8 12 70 29 108 30 16 0 22 -6 22 -20 0 -11 7 -23 15
-26 8 -4 15 -12 15 -20 0 -8 5 -14 10 -14 6 0 10 9 10 20 0 11 5 20 10 20 6 0
8 -10 4 -24 -3 -13 -1 -27 6 -31 7 -4 14 1 17 14 3 12 10 21 15 21 5 0 7 4 4
9 -3 5 1 12 9 15 13 5 15 -5 11 -67 -2 -39 -7 -80 -11 -91 -6 -14 -5 -18 6
-14 17 6 27 36 35 112 4 43 9 55 17 47 15 -15 27 -14 27 4 0 11 11 15 36 15
26 0 43 7 60 25 13 14 18 25 12 25 -7 0 -3 7 8 15 18 13 18 14 1 15 -10 0 -16
4 -12 9 7 12 -29 33 -39 24 -3 -3 -6 1 -6 10 0 9 -7 17 -15 17 -8 0 -15 5 -15
10 0 6 -7 10 -16 10 -13 0 -14 3 -5 14 9 11 6 13 -14 11 -14 -2 -25 0 -25 4 0
4 -8 7 -17 8 -126 10 -203 32 -203 57 0 8 -3 22 -7 32 -4 11 -3 15 5 10 6 -3
13 -2 17 4 8 13 -18 13 -32 -1 -22 -22 -21 9 1 57 32 68 126 205 137 198 5 -3
9 0 9 6 0 14 131 139 146 140 6 0 19 9 29 20 10 11 24 20 30 20 7 0 24 9 39
21 14 11 31 17 38 13 7 -4 10 -4 6 1 -9 9 91 63 125 68 12 1 32 9 45 15 12 7
27 10 32 7 6 -3 10 -2 10 4 0 11 33 23 70 25 14 1 35 7 48 14 12 7 30 11 40 8
9 -3 35 1 57 8 36 13 117 13 205 2z m-125 -716 c3 -5 -1 -10 -10 -10 -9 0 -13
5 -10 10 3 6 8 10 10 10 2 0 7 -4 10 -10z m-218 -66 c-3 -3 -12 -4 -19 -1 -8
3 -5 6 6 6 11 1 17 -2 13 -5z m323 -28 c0 -3 -4 -8 -10 -11 -5 -3 -10 -1 -10
4 0 6 5 11 10 11 6 0 10 -2 10 -4z m-35 -36 c-3 -5 -1 -10 4 -10 6 0 11 5 11
10 0 6 5 10 11 10 5 0 7 -4 4 -10 -4 -6 1 -7 10 -3 10 3 21 0 26 -8 6 -10 9
-10 9 -2 0 7 7 10 15 7 9 -4 15 -19 15 -38 0 -17 5 -38 11 -46 9 -12 10 -11 6
5 -3 15 3 24 20 32 20 9 25 8 38 -10 8 -11 18 -17 22 -13 5 5 2 11 -4 13 -7 3
-13 11 -13 18 0 27 23 27 48 -1 17 -17 22 -29 14 -32 -16 -5 11 -32 32 -32 17
0 22 -25 6 -35 -5 -3 -6 -13 -3 -21 5 -12 7 -13 14 -3 14 24 22 0 26 -78 3
-56 1 -74 -6 -63 -6 8 -11 26 -11 39 0 15 -4 21 -14 18 -7 -3 -19 0 -25 6 -10
10 -28 14 -83 18 -15 1 -25 6 -21 12 3 5 -7 6 -26 2 -20 -4 -37 -2 -46 5 -10
8 -15 9 -15 2 0 -7 -25 -10 -67 -9 -59 2 -71 -1 -90 -21 -13 -13 -23 -19 -23
-14 0 14 -29 24 -43 15 -7 -4 -22 -6 -34 -4 -14 1 -23 -3 -23 -11 0 -10 -2
-10 -9 1 -6 9 -14 10 -27 3 -11 -6 -35 -12 -54 -14 -34 -3 -34 -3 -42 46 -7
50 3 96 22 96 6 0 13 -7 16 -15 10 -24 25 -17 18 9 -4 18 1 28 24 45 17 11 38
21 49 21 10 0 31 7 47 15 20 11 32 12 36 5 4 -6 12 1 20 15 9 17 19 24 29 19
9 -4 27 -9 41 -11 18 -3 21 -2 11 5 -11 8 -10 11 5 15 10 2 20 5 22 6 2 0 0
-3 -3 -9z m135 -30 c0 -11 -4 -20 -9 -20 -5 0 -7 9 -4 20 3 11 7 20 9 20 2 0
4 -9 4 -20z m-651 -87 c0 -25 -1 -25 -8 -8 -5 11 -7 23 -4 28 8 14 13 7 12
-20z m46 -61 c-3 -16 -6 -72 -7 -125 0 -54 -5 -100 -9 -103 -5 -3 -7 -10 -4
-15 4 -5 -3 -9 -14 -9 -18 0 -19 3 -11 26 7 17 6 32 -1 46 -11 20 -7 43 24
148 5 19 11 41 13 48 7 25 15 11 9 -16z m45 -78 c0 -48 -4 -73 -10 -69 -5 3
-10 40 -10 81 0 48 4 73 10 69 6 -3 10 -40 10 -81z m61 56 c17 0 6 -104 -11
-108 -13 -2 -14 9 -11 70 2 40 6 65 8 56 3 -10 9 -18 14 -18z m-831 0 c0 -5
-5 -10 -11 -10 -5 0 -7 5 -4 10 3 6 8 10 11 10 2 0 4 -4 4 -10z m1578 -27 c2
-17 -3 -37 -11 -44 -8 -8 -16 -21 -20 -29 -3 -8 -6 6 -6 32 -1 25 2 54 5 63
10 25 29 12 32 -22z m621 -50 c12 -9 14 -16 5 -30 -22 -37 11 -59 42 -28 9 8
11 15 5 15 -6 0 -11 8 -10 18 0 10 3 12 6 5 2 -7 11 -13 18 -13 10 0 11 -8 3
-37 -5 -21 -11 -47 -12 -58 -1 -11 -8 -31 -15 -44 -7 -13 -13 -44 -13 -68 1
-23 -3 -43 -9 -43 -6 0 -8 -9 -4 -20 4 -11 2 -20 -4 -20 -6 0 -11 -8 -11 -17
0 -14 -2 -15 -9 -5 -4 7 -14 12 -22 10 -11 -2 -13 19 -13 112 0 63 1 131 2
150 2 19 0 64 -3 100 l-5 65 17 -40 c9 -22 24 -45 32 -52z m81 38 c0 -5 -6
-14 -14 -21 -12 -9 -15 -8 -13 9 1 20 27 31 27 12z m-1510 -148 c0 -45 -5 -40
-13 10 -3 22 -2 35 4 32 5 -4 9 -22 9 -42z m-26 -57 c-3 -8 -12 -12 -20 -9
-17 6 -9 23 11 23 8 0 12 -6 9 -14z m236 -102 c0 14 40 -25 40 -39 0 -7 9 -15
19 -18 16 -4 20 -18 27 -83 4 -44 7 -99 7 -124 -1 -174 -3 -210 -13 -210 -5 0
-10 7 -10 15 0 18 -47 38 -73 31 -27 -7 -47 3 -47 23 0 24 -11 33 -25 21 -9
-8 -16 1 -25 35 -12 44 -11 59 11 180 5 28 12 76 15 109 6 45 11 60 26 63 10
3 18 13 18 22 1 11 5 8 15 -9 8 -14 14 -21 15 -16z m-110 -90 c0 -84 -16 -174
-30 -174 -9 0 -6 204 3 218 5 6 5 17 2 22 -9 15 3 43 15 35 6 -3 10 -48 10
-101z m-73 7 c-3 -33 -1 -63 4 -68 15 -15 16 -230 2 -244 -7 -7 -13 -26 -13
-41 0 -15 -4 -28 -8 -28 -11 0 -52 39 -52 50 0 5 -8 11 -19 15 -12 3 -23 21
-29 46 -11 42 -7 68 12 82 8 5 7 10 -3 16 -9 6 -10 11 -2 15 6 4 11 2 11 -3 0
-6 9 -11 20 -11 11 0 20 5 20 11 0 5 -5 7 -11 3 -7 -4 -9 0 -5 14 4 11 2 23
-4 27 -8 5 -8 11 1 21 6 7 15 12 19 9 9 -6 19 39 25 107 4 58 14 77 27 55 5
-9 7 -43 5 -76z m-284 -21 c4 -15 0 -38 -10 -55 -9 -17 -15 -42 -14 -57 1 -18
-6 -32 -19 -40 -24 -16 -25 -27 -3 -43 15 -11 15 -15 4 -29 -9 -11 -10 -16 -2
-16 8 0 10 -34 5 -122 -5 -102 -4 -130 10 -162 20 -48 20 -56 0 -56 -9 0 -14
-6 -11 -12 2 -7 10 -12 16 -10 6 1 11 -3 11 -9 0 -6 -7 -9 -15 -5 -8 3 -15 1
-15 -4 0 -6 -12 -10 -26 -10 -19 0 -25 -4 -21 -15 4 -8 2 -17 -3 -20 -4 -3
-10 0 -12 7 -2 6 -10 -3 -18 -21 -9 -23 -17 -30 -29 -26 -13 5 -14 4 -3 -6 17
-18 16 -45 -1 -30 -8 6 -16 8 -20 5 -15 -16 -20 70 -21 370 0 312 1 329 19
342 20 15 40 14 40 -2 0 -5 3 -14 7 -20 4 -6 7 -27 6 -46 -1 -28 -5 -34 -18
-31 -14 4 -19 -5 -24 -39 -4 -27 -3 -44 4 -46 5 -2 10 -13 10 -23 0 -11 5 -17
10 -14 6 3 10 -2 11 -12 0 -16 1 -16 9 2 5 11 9 33 9 48 1 16 5 26 11 22 5 -3
12 12 16 35 4 24 16 48 29 58 23 19 37 59 35 107 -1 34 14 24 23 -15z m617
-120 c0 -58 5 -123 11 -144 8 -28 8 -45 0 -60 -6 -12 -17 -52 -25 -91 l-13
-70 -8 59 c-4 33 -4 103 0 155 4 53 7 141 6 196 -1 90 0 97 14 80 10 -15 14
-48 15 -125z m-703 93 c-3 -10 -5 -4 -5 12 0 17 2 24 5 18 2 -7 2 -21 0 -30z
m-182 -44 c9 -65 -3 -159 -22 -181 -13 -14 -14 -23 -5 -40 6 -13 11 -17 11
-10 1 7 6 10 11 7 6 -4 10 5 10 20 0 15 4 23 10 20 6 -4 7 6 4 25 -4 16 -4 30
-1 30 17 0 27 -135 29 -370 1 -265 1 -284 -8 -329 l-5 -24 -25 24 c-18 17 -21
25 -12 31 10 6 10 8 1 9 -7 1 -19 2 -25 3 -15 2 -11 38 5 48 8 5 6 12 -7 21
-11 8 -16 19 -12 25 3 6 2 13 -4 17 -6 3 -17 20 -26 37 -14 28 -14 31 2 43 15
11 16 15 5 28 -8 10 -10 25 -5 39 4 13 6 38 5 56 -1 18 0 51 4 73 6 37 8 39
21 22 7 -10 14 -13 14 -7 0 5 -6 16 -12 22 -14 14 -14 12 -18 97 l-3 60 -8
-84 c-5 -47 -16 -106 -24 -133 -8 -27 -12 -62 -8 -79 4 -23 3 -28 -9 -24 -13
5 -14 -3 -10 -43 2 -28 0 -52 -6 -56 -26 -16 -65 280 -49 374 1 8 -2 16 -7 17
-17 3 -26 31 -20 62 4 17 10 31 14 31 3 0 7 12 8 28 3 48 7 66 26 105 20 40
23 42 46 27 17 -10 20 -25 26 -125 6 -88 14 -111 24 -67 4 18 4 65 -1 105 -13
116 -13 117 20 117 27 0 30 -3 36 -51z m42 -16 c-3 -10 -5 -4 -5 12 0 17 2 24
5 18 2 -7 2 -21 0 -30z m573 -202 c0 -15 -3 -31 -6 -34 -13 -13 -20 3 -16 37
5 41 22 39 22 -3z m-306 -223 c4 -22 2 -46 -3 -52 -6 -7 -6 -17 -1 -26 6 -8
10 -22 10 -30 -1 -12 -3 -11 -11 3 -6 9 -15 14 -21 11 -6 -4 -9 -1 -6 7 3 8
-1 35 -8 62 -7 26 -8 47 -3 47 5 0 9 7 9 15 0 31 28 2 34 -37z m394 -48 c3
-38 1 -40 -26 -40 -15 0 -33 -5 -40 -12 -9 -9 -12 -8 -12 4 0 9 9 18 21 21 11
3 25 19 32 36 15 42 23 39 25 -9z m-111 -47 c-3 -10 -5 -4 -5 12 0 17 2 24 5
18 2 -7 2 -21 0 -30z m-483 -189 c4 -9 2 -22 -4 -29 -6 -8 -5 -18 5 -31 14
-18 14 -18 15 5 0 22 13 22 16 0 1 -5 2 -13 3 -19 0 -5 8 -10 17 -10 11 0 14
-6 9 -21 -5 -16 -3 -20 12 -17 16 3 18 -5 18 -70 0 -77 -18 -118 -30 -69 -5
18 -12 23 -26 20 -13 -4 -19 0 -19 11 0 34 -15 66 -31 66 -6 0 -7 -4 -4 -10
11 -18 -11 -11 -29 9 -10 11 -16 28 -14 37 3 16 6 16 26 -6 22 -24 22 -24 22
-2 0 16 4 20 17 15 14 -6 13 -1 -5 22 -17 21 -22 39 -20 72 3 45 11 55 22 27z
m763 -7 c6 -4 9 -17 5 -29 -7 -27 16 -15 28 16 l9 21 0 -22 c1 -30 27 -30 51
-1 l18 22 5 -29 c3 -17 5 -63 4 -103 -1 -39 1 -72 6 -72 4 0 7 -13 7 -30 0
-16 5 -30 11 -30 7 0 8 23 3 70 -5 51 -3 70 5 70 7 0 9 5 6 10 -10 15 2 12 20
-6 11 -12 19 -14 27 -6 12 12 38 5 38 -10 0 -5 -4 -7 -9 -3 -6 3 -7 -6 -2 -22
4 -16 5 -38 3 -51 -3 -19 -6 -21 -18 -11 -11 9 -14 9 -14 0 0 -7 -5 -9 -12 -5
-7 4 -8 3 -4 -4 10 -17 -23 -62 -45 -62 -11 0 -36 -7 -56 -15 -25 -11 -40 -12
-47 -5 -14 14 -47 13 -45 -2 4 -31 -2 -48 -17 -48 -8 0 -12 5 -8 11 3 6 2 14
-4 18 -6 4 -7 22 -2 49 10 56 -2 61 -26 12 -21 -45 -37 -53 -29 -15 3 14 7 36
10 50 6 27 -26 52 -48 38 -6 -4 -15 -8 -19 -9 -5 -1 -9 -2 -10 -3 -9 -6 -86
-6 -82 0 2 4 -3 9 -11 13 -8 3 -15 1 -15 -4 0 -6 -8 -10 -19 -10 -21 0 -38 57
-21 74 7 7 10 6 10 -2 0 -7 5 -12 11 -12 7 0 9 11 6 28 -4 21 0 33 14 45 20
18 22 15 19 -20 -1 -22 15 -32 22 -14 2 5 12 3 23 -6 14 -11 16 -17 8 -20 -17
-6 -16 -23 1 -23 8 0 16 7 20 15 6 18 -2 45 -15 45 -5 0 -9 4 -9 8 0 5 7 9 15
9 8 0 15 -4 15 -8 0 -5 7 -6 16 -2 14 5 15 3 5 -15 -10 -18 -9 -21 4 -16 8 4
15 15 15 25 0 21 20 25 38 7 6 -6 15 -9 18 -5 4 3 -1 13 -10 22 -9 9 -16 20
-16 25 0 4 -10 6 -22 3 l-23 -6 20 20 c11 11 23 19 26 17 4 -2 12 2 17 9 12
14 59 16 79 4z m-297 -53 c-5 -19 -11 -39 -15 -42 -7 -7 3 56 12 71 9 16 11 5
3 -29z m150 1 c0 -8 -4 -15 -10 -15 -5 0 -7 7 -4 15 4 8 8 15 10 15 2 0 4 -7
4 -15z m-190 -80 c0 -26 -6 -39 -25 -51 -14 -9 -25 -23 -25 -32 0 -32 -8 -5
-15 52 -5 43 -4 56 5 51 6 -4 9 -13 6 -21 -4 -11 -2 -12 14 -1 11 6 20 17 20
24 0 7 5 13 10 13 6 0 10 -16 10 -35z m697 13 c-3 -8 -6 -5 -6 6 -1 11 2 17 5
13 3 -3 4 -12 1 -19z m-67 -20 c0 7 4 11 9 8 5 -4 12 0 14 6 3 7 6 -9 6 -37 0
-34 -2 -45 -9 -35 -8 12 -11 12 -28 -3 -26 -24 -32 -21 -32 13 0 17 4 30 9 30
5 0 7 10 4 23 -5 22 -5 22 10 2 10 -12 16 -15 17 -7z m-727 -47 c-8 -47 -20
-71 -39 -71 -11 0 -13 -7 -8 -27 4 -16 12 -31 18 -35 8 -5 7 -11 -2 -20 -9 -9
-12 -9 -12 0 0 7 -7 12 -16 12 -12 0 -15 11 -13 55 1 30 0 58 -4 62 -11 10 -8
43 3 43 5 0 13 -15 18 -32 10 -34 15 -29 26 23 3 14 12 26 20 26 11 0 13 -9 9
-36z m27 -42 c0 -6 -4 -7 -10 -4 -5 3 -10 11 -10 16 0 6 5 7 10 4 6 -3 10 -11
10 -16z m-163 -41 c-3 -8 -6 -5 -6 6 -1 11 2 17 5 13 3 -3 4 -12 1 -19z m265
8 c8 7 20 -45 13 -56 -4 -6 -14 -10 -23 -10 -13 0 -18 10 -19 41 -2 33 0 39
11 30 7 -6 15 -8 18 -5z m-323 -36 c-6 -16 -15 -30 -20 -30 -5 0 -9 14 -9 30
0 23 5 30 19 30 18 0 19 -3 10 -30z m243 -12 c2 -17 9 -22 23 -20 16 3 17 1 8
-9 -9 -9 -18 -9 -42 1 -26 10 -29 15 -20 31 13 26 27 24 31 -3z m78 -32 c0
-11 -19 -15 -25 -6 -3 5 1 10 9 10 9 0 16 -2 16 -4z m66 -14 c-10 -2 -22 0
-28 6 -6 6 0 7 19 4 21 -5 23 -7 9 -10z"/>
<path d="M1890 4414 c0 -17 4 -22 15 -18 8 4 13 10 10 14 -3 5 0 10 7 12 7 3
2 7 -10 10 -18 5 -22 2 -22 -18z"/>
<path d="M1540 4368 c0 -23 3 -29 9 -19 8 12 4 51 -5 51 -2 0 -4 -15 -4 -32z"/>
<path d="M2495 3550 c-3 -5 -1 -10 4 -10 6 0 11 5 11 10 0 6 -2 10 -4 10 -3 0
-8 -4 -11 -10z"/>
<path d="M825 3450 c3 -5 8 -10 11 -10 2 0 4 5 4 10 0 6 -5 10 -11 10 -5 0 -7
-4 -4 -10z"/>
<path d="M690 3439 c0 -5 5 -7 10 -4 6 3 10 8 10 11 0 2 -4 4 -10 4 -5 0 -10
-5 -10 -11z"/>
<path d="M2271 2901 c-14 -11 -21 -23 -17 -30 10 -15 32 1 39 29 3 11 4 20 4
20 -1 0 -13 -9 -26 -19z"/>
<path d="M2011 2874 c0 -11 3 -14 6 -6 3 7 2 16 -1 19 -3 4 -6 -2 -5 -13z"/>
<path d="M2217 2841 c-3 -14 -1 -18 9 -14 8 3 14 11 14 19 0 21 -17 17 -23 -5z"/>
<path d="M2250 2593 c0 -5 -29 -21 -64 -38 -40 -18 -70 -40 -80 -57 -16 -26
-16 -27 3 -23 29 5 161 102 161 117 0 10 -20 10 -20 1z"/>
<path d="M2137 2164 c-4 -4 -7 -17 -7 -28 1 -19 1 -20 11 -3 11 19 8 43 -4 31z"/>
<path d="M1660 3656 c0 -8 -7 -19 -16 -24 -13 -7 -14 -10 -2 -14 16 -6 41 39
27 48 -5 3 -9 -2 -9 -10z"/>
<path d="M1935 3570 c-3 -5 -1 -10 4 -10 6 0 11 5 11 10 0 6 -2 10 -4 10 -3 0
-8 -4 -11 -10z"/>
<path d="M1705 3560 c3 -5 10 -10 16 -10 5 0 9 5 9 10 0 6 -7 10 -16 10 -8 0
-12 -4 -9 -10z"/>
<path d="M1915 3531 c-3 -5 -2 -12 3 -15 5 -3 9 1 9 9 0 17 -3 19 -12 6z"/>
<path d="M1980 3500 c0 -5 5 -10 10 -10 6 0 10 5 10 10 0 6 -4 10 -10 10 -5 0
-10 -4 -10 -10z"/>
<path d="M1225 2841 c-3 -5 -1 -12 5 -16 5 -3 10 1 10 9 0 18 -6 21 -15 7z"/>
<path d="M920 2721 c0 -5 7 -14 15 -21 16 -14 18 -10 9 14 -6 17 -24 22 -24 7z"/>
<path d="M876 2705 c-3 -8 -1 -15 4 -15 6 0 10 7 10 15 0 8 -2 15 -4 15 -2 0
-6 -7 -10 -15z"/>
<path d="M970 2512 c0 -23 4 -42 9 -42 6 0 7 17 4 38 -8 51 -13 53 -13 4z"/>
<path d="M930 2440 c0 -5 5 -10 11 -10 5 0 7 5 4 10 -3 6 -8 10 -11 10 -2 0
-4 -4 -4 -10z"/>
<path d="M651 2943 c0 -25 1 -26 9 -8 12 27 12 35 0 35 -5 0 -10 -12 -9 -27z"/>
<path d="M670 2789 c0 -5 5 -7 10 -4 6 3 10 8 10 11 0 2 -4 4 -10 4 -5 0 -10
-5 -10 -11z"/>
<path d="M716 2347 c3 -10 9 -15 12 -12 3 3 0 11 -7 18 -10 9 -11 8 -5 -6z"/>
<path d="M1577 2205 c7 -19 35 -16 40 5 4 13 3 13 -6 0 -7 -10 -11 -11 -11 -2
0 6 -7 12 -15 12 -9 0 -12 -6 -8 -15z"/>
<path d="M1730 2180 c0 -5 5 -10 10 -10 6 0 10 5 10 10 0 6 -4 10 -10 10 -5 0
-10 -4 -10 -10z"/>
<path d="M1696 2154 c-8 -21 -8 -39 1 -30 8 7 15 46 9 46 -2 0 -7 -7 -10 -16z"/>
<path d="M1841 2058 c-1 -20 14 -24 25 -6 4 6 3 8 -4 4 -5 -3 -13 0 -15 6 -3
8 -6 6 -6 -4z"/>
<path d="M1616 2043 c-6 -14 -5 -15 5 -6 7 7 10 15 7 18 -3 3 -9 -2 -12 -12z"/>
</g>
</svg>
